<svg xmlns="http://www.w3.org/2000/svg" width="42" height="42" fill="none">
  <g fill="#fff" clip-path="url(#a)">
    <path
      d="M21 3.782c5.61 0 6.275.024 8.482.123 2.05.09 3.158.434 3.897.722a6.494 6.494 0 0 1 2.411 1.566c.739.739 1.19 1.436 1.567 2.412.287.738.632 1.854.722 3.897.098 2.214.123 2.879.123 8.482 0 5.61-.025 6.275-.123 8.482-.09 2.05-.435 3.158-.722 3.896a6.493 6.493 0 0 1-1.567 2.412c-.738.738-1.435 1.19-2.411 1.567-.739.287-1.854.631-3.897.721-2.215.099-2.88.123-8.482.123-5.61 0-6.275-.024-8.482-.123-2.05-.09-3.158-.434-3.897-.721a6.493 6.493 0 0 1-2.411-1.567c-.739-.739-1.19-1.436-1.567-2.412-.287-.738-.632-1.854-.722-3.896-.098-2.215-.123-2.88-.123-8.482 0-5.611.025-6.276.123-8.482.09-2.051.435-3.159.722-3.897A6.494 6.494 0 0 1 6.21 6.193c.738-.738 1.435-1.19 2.411-1.566.739-.288 1.854-.632 3.897-.722 2.207-.099 2.871-.123 8.482-.123ZM21 0c-5.701 0-6.415.025-8.654.123-2.232.098-3.766.46-5.094.976-1.387.542-2.56 1.255-3.725 2.428C2.354 4.692 1.641 5.865 1.1 7.243.582 8.58.221 10.106.123 12.338.025 14.585 0 15.297 0 21c0 5.701.025 6.415.123 8.654.098 2.232.46 3.765.976 5.094.542 1.387 1.255 2.56 2.428 3.725a10.266 10.266 0 0 0 3.716 2.42c1.337.516 2.863.877 5.095.976 2.239.098 2.953.123 8.654.123 5.701 0 6.415-.025 8.654-.123 2.231-.099 3.765-.46 5.094-.976a10.266 10.266 0 0 0 3.716-2.42 10.266 10.266 0 0 0 2.42-3.716c.517-1.337.878-2.863.976-5.094.099-2.24.123-2.954.123-8.655 0-5.701-.024-6.415-.123-8.654-.098-2.231-.459-3.765-.976-5.094-.517-1.395-1.23-2.568-2.403-3.733a10.265 10.265 0 0 0-3.716-2.42C33.42.591 31.894.23 29.663.131 27.415.025 26.7 0 21 0Z" />
    <path
      d="M21 10.213c-5.956 0-10.787 4.832-10.787 10.787 0 5.956 4.832 10.787 10.787 10.787 5.956 0 10.787-4.831 10.787-10.787S26.956 10.213 21 10.213Zm0 17.784a6.998 6.998 0 0 1 0-13.994 6.998 6.998 0 0 1 0 13.994ZM34.732 9.786a2.519 2.519 0 1 1-2.518-2.518 2.524 2.524 0 0 1 2.518 2.518Z" />
  </g>
  <defs>
    <clipPath id="a">
      <path fill="#fff" d="M0 0h42v42H0z" />
    </clipPath>
  </defs>
</svg>