<svg width="70" height="61" viewBox="0 0 70 61" fill="none" xmlns="http://www.w3.org/2000/svg">
  <g clip-path="url(#clip0_2348_18)">
    <path
      d="M34.9861 22.4921C23.4457 22.4921 11.9054 22.4921 0.365015 22.4921C-0.0378903 22.4921 0.0100746 22.5605 0.0100746 22.14C0.0100746 21.7488 0.0100746 21.3576 0.0100746 20.9664C0.0100746 20.761 0.0100746 20.761 0.211527 20.761C1.59292 20.761 2.97431 20.761 4.3557 20.761C5.06558 20.761 5.76586 20.761 6.47574 20.761C6.68679 20.761 6.68679 20.761 6.76353 20.5459C7.9051 17.1816 9.55509 14.101 11.7615 11.343C15.8865 6.18906 21.0955 2.72699 27.398 0.995954C28.8562 0.59498 30.3431 0.330924 31.8492 0.164666C33.0771 0.0277481 34.3146 -0.0211512 35.5521 0.00818839C40.3486 0.0962071 44.8765 1.26001 49.0878 3.5974C55.9084 7.39198 60.6281 13.0447 63.247 20.5068C63.2566 20.5263 63.2566 20.5557 63.2662 20.5752C63.3334 20.7708 63.3334 20.7708 63.5444 20.7708C65.5973 20.7708 67.6598 20.7708 69.7127 20.7708C70.058 20.7708 70.0197 20.7317 70.0197 21.0838C70.0197 21.4945 70.0197 21.8955 70.0197 22.3063C70.0197 22.5116 70.0197 22.5116 69.8182 22.5116C69.7511 22.5116 69.6839 22.5116 69.6072 22.5116C58.0476 22.4921 46.5169 22.4921 34.9861 22.4921ZM7.78039 20.7415C7.85713 20.7806 7.94347 20.761 8.02981 20.761C8.77806 20.761 9.53591 20.761 10.2842 20.761C10.7063 20.761 10.5911 20.8197 10.7446 20.4481C12.4138 16.2819 14.9368 12.7416 18.3423 9.88584C22.7838 6.14994 27.9065 4.12551 33.6719 3.81255C36.0893 3.67563 38.4875 3.88101 40.8474 4.44824C47.0445 5.93478 52.0712 9.28927 55.9276 14.453C57.3186 16.321 58.4218 18.3454 59.2851 20.5263C59.3906 20.8002 59.3331 20.761 59.6305 20.761C60.4171 20.761 61.1941 20.761 61.9807 20.761C62.0575 20.761 62.1438 20.7806 62.2206 20.7415C58.959 10.6976 48.6177 0.55586 33.9692 1.05463C20.2321 1.52407 10.7734 11.3919 7.78039 20.7415ZM31.1393 14.2085C31.1393 13.299 31.1393 12.3993 31.1393 11.4897C31.1393 11.1768 31.0242 10.9127 30.794 10.6976C30.2951 10.2281 29.4701 10.2086 28.9521 10.6585C28.7027 10.8736 28.5588 11.1377 28.5588 11.4702C28.5588 13.2892 28.5588 15.1083 28.5588 16.9371C28.5588 17.2696 28.6931 17.5435 28.9425 17.7488C29.1919 17.964 29.4893 18.0618 29.8155 18.0716C30.4966 18.0911 31.1777 17.6022 31.1393 16.7806C31.1105 15.9298 31.1393 15.0692 31.1393 14.2085ZM45.0012 16.6828C45.0012 16.4188 44.9916 16.1547 45.0012 15.8809C45.0012 15.7733 44.9724 15.7244 44.8573 15.7244C44.675 15.7342 44.4927 15.7342 44.3009 15.7244C44.1858 15.7146 44.1378 15.7538 44.1378 15.8809C44.1474 16.2428 44.1378 16.6046 44.1474 16.9567C44.157 17.4261 44.4064 17.7488 44.8189 17.9444C45.0683 18.0618 45.3369 18.0911 45.6055 18.0422C46.2195 17.9444 46.6032 17.5044 46.6032 16.8687C46.6032 16.5655 46.6032 16.2623 46.6032 15.9494C46.6128 15.519 46.4977 15.1376 46.2674 14.7758C45.9413 14.2672 45.6247 13.7489 45.2985 13.2403C45.1547 13.0154 45.0395 12.7709 45.0204 12.5068C44.982 11.9494 44.9916 11.4017 45.0108 10.8443C45.0204 10.6291 45.1738 10.5118 45.3849 10.5215C45.5959 10.5215 45.711 10.6291 45.7398 10.8443C45.7494 10.9323 45.7494 11.0203 45.7494 11.0985C45.7494 11.5582 45.7494 12.0179 45.7494 12.4873C45.7494 12.6633 45.759 12.6633 45.9125 12.6633C46.0852 12.6633 46.2674 12.6633 46.4401 12.6633C46.5552 12.6633 46.6032 12.6242 46.6032 12.5068C46.5936 12.1352 46.6128 11.7734 46.5936 11.4017C46.5744 10.9225 46.3058 10.6096 45.8837 10.4237C45.6727 10.3259 45.4424 10.3064 45.2026 10.3357C44.6654 10.3846 44.109 10.8052 44.1282 11.5191C44.1378 11.8125 44.1282 12.1157 44.1282 12.409C44.1282 12.8198 44.2337 13.1914 44.4544 13.5337C44.7805 14.0325 45.0779 14.5411 45.4041 15.03C45.6343 15.3723 45.7398 15.744 45.7302 16.1547C45.7206 16.5557 45.7302 16.9567 45.7302 17.3479C45.7302 17.4066 45.7302 17.475 45.7206 17.5337C45.6919 17.7488 45.5767 17.8564 45.3657 17.8564C45.1355 17.8662 44.9916 17.7293 44.982 17.4848C44.9916 17.2305 45.0012 16.9567 45.0012 16.6828ZM40.9721 18.0227C41.164 18.0227 41.3558 18.0227 41.5477 18.0227C41.6148 18.0227 41.6724 18.0129 41.6724 17.9249C41.6724 17.8369 41.6148 17.8173 41.5477 17.8271C41.4134 17.8369 41.4038 17.7586 41.3942 17.6511C41.375 17.4066 41.3462 17.1523 41.3175 16.9078C41.2503 16.145 41.1736 15.3821 41.1064 14.6193C41.0393 13.8858 40.9721 13.1523 40.905 12.4286C40.8474 11.7929 40.7803 11.1572 40.7227 10.5118C40.7131 10.4237 40.6939 10.3846 40.598 10.3846C40.3869 10.3846 40.1855 10.3846 39.9744 10.3846C39.8689 10.3846 39.8497 10.4433 39.8401 10.5313C39.8114 10.854 39.7826 11.167 39.7442 11.4897C39.6579 12.321 39.5811 13.1523 39.4948 13.9836C39.4276 14.678 39.3509 15.3626 39.2837 16.0569C39.2262 16.585 39.1782 17.1132 39.1207 17.6413C39.1111 17.7488 39.0919 17.8369 38.948 17.8271C38.8808 17.8173 38.8329 17.8564 38.8329 17.9347C38.8425 18.0129 38.8904 18.0129 38.948 18.0129C39.1303 18.0129 39.3125 18.0129 39.5044 18.0129C39.5715 18.0129 39.6291 18.0031 39.6291 17.9151C39.6291 17.8271 39.5715 17.8075 39.5044 17.8173C39.3893 17.8271 39.3605 17.7684 39.3701 17.6608C39.3893 17.5239 39.3989 17.3772 39.418 17.2403C39.466 16.7415 39.514 16.2428 39.5619 15.744C39.5715 15.6266 39.6291 15.5875 39.7346 15.5875C39.8785 15.5973 40.0224 15.5875 40.1759 15.5875C40.3486 15.5875 40.3582 15.5875 40.3678 15.7635C40.4253 16.3894 40.4733 17.0056 40.5308 17.6315C40.5404 17.7488 40.5212 17.8173 40.3965 17.8075C40.3198 17.8075 40.2814 17.8466 40.291 17.9249C40.3006 18.0031 40.3582 18.0031 40.4061 18.0031C40.598 18.0227 40.7898 18.0227 40.9721 18.0227ZM24.8943 14.0912C24.8943 15.167 24.8943 16.2525 24.8943 17.3283C24.8943 17.4261 24.8943 17.5141 24.8847 17.6119C24.8559 17.7782 24.7696 17.8564 24.6065 17.876C24.4338 17.8955 24.3283 17.8173 24.2707 17.6511C24.2419 17.563 24.2419 17.4652 24.2419 17.3772C24.2419 16.8882 24.2419 16.3894 24.2419 15.9005C24.2419 15.7831 24.2132 15.7342 24.0885 15.7342C23.9158 15.744 23.7335 15.744 23.5608 15.7342C23.4457 15.7342 23.3978 15.7635 23.3978 15.8907C23.4074 16.3014 23.3978 16.722 23.3978 17.1327C23.3978 17.3479 23.4841 17.5239 23.628 17.6804C23.935 18.0129 24.3187 18.1107 24.7408 18.052C25.4123 17.9738 25.748 17.5826 25.748 16.898C25.748 14.9029 25.748 12.9078 25.748 10.9127C25.748 10.854 25.748 10.7856 25.748 10.7269C25.7385 10.6193 25.7672 10.5607 25.8919 10.5704C25.9591 10.5802 26.0167 10.5704 26.0167 10.4726C26.0167 10.3846 25.9591 10.3748 25.8919 10.3748C25.6713 10.3748 25.4507 10.3748 25.2204 10.3748C25.0478 10.3748 24.8847 10.3748 24.712 10.3748C24.6736 10.3748 24.6353 10.3944 24.6257 10.4335C24.6161 10.4726 24.6161 10.5215 24.6544 10.5411C24.6832 10.5607 24.7312 10.5607 24.76 10.5607C24.8655 10.5509 24.8943 10.6096 24.8943 10.6976C24.8943 10.7563 24.8943 10.8052 24.8943 10.8638C24.8943 11.9494 24.8943 13.0252 24.8943 14.0912ZM35.4082 14.2574C35.341 14.2085 35.341 14.1596 35.3314 14.1107C35.2451 13.5729 35.1492 13.035 35.0628 12.4971C34.9669 11.9396 34.871 11.3724 34.7846 10.8149C34.7559 10.6389 34.7559 10.6389 34.9381 10.5802C34.9957 10.5607 35.0053 10.5313 35.0053 10.4824C35.0053 10.4237 34.9765 10.3944 34.9189 10.3944C34.5256 10.3944 34.1323 10.3944 33.7486 10.3944C33.6814 10.3944 33.6527 10.4335 33.6527 10.4922C33.6527 10.5509 33.6814 10.59 33.739 10.5802C33.9117 10.5509 33.9309 10.6682 33.95 10.8052C34.1419 11.9201 34.3434 13.035 34.5256 14.1499C34.5736 14.453 34.6599 14.7464 34.6599 15.0496C34.6695 15.9102 34.6599 16.7709 34.6599 17.6315C34.6599 17.7586 34.6503 17.8466 34.4968 17.8369C34.4393 17.8271 34.3913 17.8564 34.3913 17.9249C34.3913 18.0129 34.4393 18.0227 34.5064 18.0227C34.7079 18.0227 34.9093 18.0227 35.1012 18.0227C35.2835 18.0227 35.4657 18.0227 35.6576 18.0227C35.7152 18.0227 35.7631 18.0227 35.7727 17.9444C35.7727 17.876 35.7535 17.8466 35.6864 17.8369C35.5041 17.7977 35.5041 17.7977 35.5041 17.6119C35.5041 16.7709 35.5041 15.9396 35.5041 15.0985C35.5041 15.03 35.5041 14.9616 35.5137 14.8931C35.7631 13.524 36.0221 12.145 36.2715 10.7758C36.2907 10.6585 36.3195 10.5802 36.4538 10.5998C36.5306 10.6096 36.5689 10.5802 36.5689 10.4922C36.5593 10.414 36.521 10.4042 36.4634 10.4042C36.2811 10.4042 36.0989 10.4042 35.907 10.4042C35.8495 10.4042 35.8015 10.414 35.7919 10.4824C35.7823 10.5704 35.8303 10.5802 35.8974 10.59C36.0509 10.6096 36.0509 10.6193 36.0221 10.7758C35.955 11.1474 35.8878 11.5289 35.8207 11.9005C35.696 12.6731 35.5521 13.4555 35.4082 14.2574Z"
      fill="black" />
    <path
      d="M35.0338 38.2793C46.5645 38.2793 58.1049 38.2793 69.6357 38.2793C70.0002 38.2793 70.0002 38.2793 70.0002 38.6509C70.0002 39.0519 70.0002 39.4529 70.0002 39.8441C70.0002 40.0103 70.0002 40.0103 69.8275 40.0201C69.7316 40.0201 69.6452 40.0201 69.5493 40.0201C67.5924 40.0201 65.6354 40.0201 63.6784 40.0201C63.6209 40.0201 63.5729 40.0299 63.5153 40.0201C63.381 40.0006 63.3139 40.0592 63.2659 40.1962C63.1412 40.5678 63.0165 40.9394 62.8822 41.3013C61.3377 45.4088 59.0354 49.0078 55.9561 52.0885C51.9462 56.108 47.2073 58.7681 41.7393 60.0786C40.3195 60.4209 38.8806 60.6361 37.4224 60.7534C35.9163 60.8806 34.4006 60.8903 32.8945 60.7828C27.3018 60.3622 22.1984 58.5236 17.6417 55.1789C12.4615 51.3843 8.82574 46.3868 6.72487 40.2451C6.64813 40.0103 6.6961 40.0103 6.40831 40.0103C4.365 40.0103 2.32169 40.0103 0.287982 40.0103C-0.0285861 40.0103 0.000192877 40.0397 0.000192877 39.7267C0.000192877 39.316 0.000192877 38.915 0.000192877 38.5043C0.000192877 38.2695 0.000192876 38.2695 0.220831 38.2695C0.287982 38.2695 0.355133 38.2695 0.431877 38.2695C11.9626 38.2793 23.503 38.2793 35.0338 38.2793ZM58.3063 40.0592C58.2008 40.0103 58.1145 40.0299 58.0281 40.0299C42.6698 40.0299 27.321 40.0299 11.9626 40.0299C11.6749 40.0299 11.6749 40.0299 11.7804 40.3037C13.5551 44.6167 16.2891 48.1765 19.9536 50.9736C23.9347 54.0249 28.4338 55.6777 33.403 56.02C34.6021 56.0982 35.7916 56.0787 36.9907 55.9906C38.4009 55.8733 39.7919 55.6483 41.1637 55.2963C45.1831 54.2596 48.7325 52.3232 51.8119 49.4968C54.3061 47.2083 56.2822 44.5189 57.7212 41.4284C57.9226 40.9786 58.1241 40.5287 58.3063 40.0592ZM62.2587 40.0592C62.1627 40.0103 62.086 40.0299 62.0092 40.0299C61.2226 40.0299 60.4264 40.0299 59.6398 40.0299C59.3712 40.0299 59.4095 40.0201 59.3136 40.2646C57.7499 44.2352 55.4093 47.6484 52.2532 50.465C47.8884 54.3574 42.7945 56.5383 37.0099 57.0175C35.571 57.1349 34.1224 57.1251 32.6835 56.998C31.3117 56.8806 29.9591 56.6459 28.6257 56.3036C23.455 54.954 19.0806 52.2645 15.512 48.2254C13.4208 45.8587 11.8092 43.1888 10.658 40.2353C10.5621 39.9908 10.5525 40.0299 10.3606 40.0299C9.57399 40.0299 8.79696 40.0299 8.01033 40.0299C7.66499 40.0299 7.70336 40.0299 7.80888 40.3135C9.48765 45.0763 12.1833 49.1447 15.915 52.4894C20.98 57.0273 26.9085 59.4625 33.6428 59.8146C35.053 59.8928 36.4631 59.8439 37.8733 59.707C39.2835 59.5603 40.6649 59.3256 42.0366 58.9735C46.7468 57.7608 50.891 55.4723 54.4787 52.1276C57.6444 49.1643 60.0619 45.6533 61.7023 41.6045C61.9037 41.0861 62.086 40.5874 62.2587 40.0592Z"
      fill="black" />
    <path
      d="M37.6907 30.474C37.6907 32.2148 37.6907 33.9654 37.6907 35.7062C37.6907 35.804 37.6907 35.8921 37.7003 35.9899C37.7579 36.3713 38.0744 36.6255 38.4486 36.606C38.8227 36.5864 39.1105 36.293 39.1105 35.9018C39.1201 35.139 39.1105 34.3664 39.1105 33.6036C39.1105 32.5962 39.1105 31.5889 39.1105 30.5718C39.1105 30.5229 39.1105 30.474 39.1105 30.4349C39.1009 30.2686 39.1009 30.2686 38.9378 30.2686C38.8035 30.2686 38.6788 30.2589 38.5445 30.2686C38.4294 30.2784 38.4006 30.2295 38.4006 30.1122C38.4006 29.9557 38.4102 29.9361 38.5349 29.9263C38.7076 29.9166 38.8707 29.9263 39.0433 29.9263C39.4846 29.9263 39.9163 29.9263 40.3576 29.9263C40.5494 29.9263 40.5494 29.9263 40.5494 30.1219C40.5494 30.3273 40.5494 30.5327 40.5494 30.7283C40.5494 32.117 40.5494 33.496 40.5494 34.8847C40.5494 35.9507 39.8587 36.7625 38.8131 36.8994C38.0936 36.9972 37.4413 36.87 36.8753 36.381C36.4628 36.0192 36.2422 35.5693 36.2422 35.0119C36.2518 31.9703 36.2422 28.9288 36.2422 25.8873C36.2422 25.3885 36.4149 24.9777 36.7698 24.6257C37.6332 23.7748 39.0817 23.7455 39.9739 24.567C40.348 24.9093 40.5494 25.3298 40.5494 25.8481C40.5494 26.4545 40.5494 27.0706 40.5494 27.677C40.5494 27.8823 40.5494 27.8824 40.348 27.8921C39.993 27.8921 39.6381 27.8921 39.2928 27.8921C39.1201 27.8921 39.1105 27.8921 39.1105 27.7063C39.1105 26.8555 39.1105 26.0046 39.1105 25.144C39.1105 25.0364 39.1201 24.9288 39.0817 24.8213C38.9954 24.5181 38.7076 24.3029 38.391 24.3127C38.0649 24.3127 37.7963 24.5279 37.7099 24.8408C37.6811 24.9582 37.6811 25.0755 37.6811 25.1929C37.6907 26.9533 37.6907 28.7136 37.6907 30.474Z"
      fill="black" />
    <path
      d="M12.9503 27.1392C12.9503 27.2175 12.9503 27.2957 12.9503 27.374C12.9503 30.3079 12.9503 33.2419 12.9503 36.1758C12.9503 36.1954 12.9503 36.2247 12.9503 36.2443C12.9503 36.4986 12.9023 36.5181 13.2093 36.5181C13.4011 36.5181 13.4203 36.5377 13.4011 36.7333C13.3915 36.8311 13.3532 36.8506 13.2668 36.8506C12.9023 36.8506 12.5473 36.8506 12.1828 36.8506C12.0581 36.8506 12.0581 36.7724 12.0581 36.6844C12.0581 36.5964 12.0581 36.5181 12.1828 36.5181C12.2787 36.5181 12.4035 36.567 12.4706 36.479C12.5378 36.391 12.4994 36.2639 12.4994 36.1563C12.4994 32.3421 12.4994 28.5378 12.4994 24.7236C12.4994 24.6943 12.4994 24.6649 12.4994 24.6258C12.4994 24.3911 12.4994 24.3911 12.2787 24.3911C12.2596 24.3911 12.2308 24.3911 12.2116 24.3911C12.0677 24.3813 12.0581 24.3715 12.0581 24.2249C12.0581 24.0782 12.0677 24.0586 12.2116 24.0586C12.7008 24.0586 13.1901 24.0586 13.6889 24.0586C13.8712 24.0586 13.8712 24.0586 13.9096 24.2444C14.0918 25.0855 14.2741 25.9168 14.4659 26.7578C14.888 28.6649 15.3005 30.572 15.7226 32.4791C15.7322 32.5377 15.7514 32.5964 15.7898 32.7138C15.8377 32.5866 15.8186 32.4986 15.8186 32.4106C15.8186 30.572 15.8186 28.7334 15.8186 26.8948C15.8186 26.1515 15.8186 25.4082 15.8186 24.6649C15.8186 24.4009 15.8473 24.3911 15.5595 24.3911C15.3773 24.3911 15.3677 24.3618 15.3773 24.1857C15.3773 24.0782 15.4348 24.0586 15.5212 24.0586C15.8761 24.0586 16.2311 24.0586 16.5764 24.0586C16.6915 24.0586 16.7203 24.1075 16.7203 24.2151C16.7203 24.3715 16.7107 24.3813 16.5764 24.3911C16.2598 24.4204 16.2598 24.4204 16.2598 24.753C16.2598 28.6845 16.2598 32.6257 16.2598 36.5573C16.2598 36.88 16.2886 36.8506 15.9816 36.8506C15.761 36.8506 15.5404 36.8506 15.3101 36.8506C15.1087 36.8506 15.1087 36.8506 15.0703 36.655C14.9552 36.1563 14.8497 35.6477 14.7441 35.149C14.1782 32.5377 13.6026 29.9167 13.0366 27.3055C13.027 27.2468 12.9982 27.1881 12.979 27.1295C12.979 27.1295 12.9694 27.1392 12.9503 27.1392Z"
      fill="black" />
    <path
      d="M45.8256 27.1258C45.8256 27.204 45.8256 27.2822 45.8256 27.3605C45.8256 30.314 45.8256 33.2577 45.8256 36.2113C45.8256 36.2406 45.8256 36.2699 45.8256 36.3091C45.8256 36.5144 45.8256 36.5144 46.0271 36.5242C46.0463 36.5242 46.075 36.5242 46.0942 36.5242C46.2573 36.534 46.334 36.6416 46.2669 36.798C46.2381 36.8665 46.1806 36.8567 46.1326 36.8567C45.8832 36.8567 45.6242 36.8567 45.3747 36.8567C45.2692 36.8567 45.1637 36.8567 45.0486 36.8567C44.9143 36.8567 44.9335 36.7589 44.9335 36.6807C44.9335 36.5927 44.9335 36.5242 45.0486 36.5242C45.0582 36.5242 45.0678 36.5242 45.0678 36.5242C45.3652 36.5046 45.3652 36.5047 45.3652 36.2015C45.3652 32.3776 45.3652 28.5536 45.3652 24.7199C45.3652 24.7004 45.3652 24.6906 45.3652 24.671C45.3652 24.407 45.3939 24.3972 45.1061 24.3972C44.9431 24.3972 44.8663 24.2798 44.9335 24.1234C44.9622 24.0451 45.039 24.0647 45.087 24.0647C45.4419 24.0647 45.7968 24.0647 46.1422 24.0647C46.2093 24.0647 46.2765 24.0647 46.3532 24.0647C46.8137 24.0745 46.7082 23.9962 46.8137 24.4559C47.4085 27.1355 47.9936 29.825 48.5788 32.5047C48.598 32.5731 48.6172 32.6318 48.6364 32.7198C48.6843 32.6318 48.6651 32.5536 48.6651 32.4753C48.6651 29.8739 48.6651 27.2627 48.6651 24.6612C48.6651 24.407 48.7035 24.3972 48.4253 24.3972C48.243 24.3972 48.2335 24.3874 48.2335 24.2212C48.2335 24.0745 48.243 24.0647 48.3965 24.0647C48.7419 24.0647 49.0872 24.0647 49.4326 24.0647C49.5765 24.0647 49.5765 24.0842 49.5765 24.2309C49.5765 24.3776 49.5669 24.3874 49.423 24.3972C49.1256 24.4167 49.1256 24.4167 49.1256 24.7199C49.1256 28.6416 49.1256 32.5634 49.1256 36.4753C49.1256 36.5144 49.1256 36.5536 49.1256 36.5927C49.1256 36.8665 49.1352 36.8469 48.8762 36.8469C48.6364 36.8469 48.3965 36.8469 48.1663 36.8469C47.984 36.8469 47.984 36.8469 47.9457 36.6611C47.8018 36.0059 47.6579 35.3506 47.5236 34.6954C46.9864 32.2309 46.4492 29.7663 45.912 27.3018C45.9024 27.2431 45.8832 27.1844 45.864 27.1258C45.8544 27.1258 45.8448 27.1258 45.8256 27.1258Z"
      fill="black" />
    <path
      d="M22.4669 34.5993C22.4669 34.9807 22.4669 35.3621 22.4669 35.7533C22.4669 35.8218 22.4669 35.8903 22.4669 35.9685C22.4861 36.5553 22.889 36.6726 23.3015 36.5846C23.503 36.5455 23.6181 36.3988 23.666 36.2032C23.6948 36.0859 23.7044 35.9587 23.7044 35.8316C23.7044 35.1176 23.7044 34.4037 23.7044 33.6996C23.7044 33.0639 23.5413 32.4869 23.196 31.949C22.6396 31.0786 22.0928 30.1984 21.5364 29.328C21.1815 28.7803 21.0088 28.1837 21.0184 27.5383C21.0184 27.0101 21.028 26.4723 21.0184 25.9441C20.9896 24.8292 21.8818 24.1349 22.6972 24.0273C23.0905 23.9784 23.4838 23.9784 23.8579 24.1251C24.539 24.3891 24.9995 24.8488 25.1242 25.6018C25.1338 25.6605 25.1434 25.729 25.1434 25.7877C25.1434 26.4331 25.1434 27.0884 25.1434 27.7339C25.1434 27.9099 25.1434 27.9197 24.9611 27.9197C24.5966 27.9197 24.2416 27.9197 23.8771 27.9197C23.7044 27.9197 23.7044 27.9197 23.7044 27.7339C23.7044 27.3133 23.7044 26.8928 23.7044 26.4625C23.7044 26.0224 23.7044 25.5823 23.7044 25.152C23.7044 25.0248 23.6948 24.8977 23.666 24.7803C23.5989 24.4967 23.4166 24.3598 23.1192 24.3402C22.7835 24.3305 22.5916 24.4576 22.4957 24.7412C22.4669 24.839 22.4573 24.9368 22.4573 25.0444C22.4573 25.8072 22.4573 26.5798 22.4573 27.3427C22.4573 27.8903 22.6204 28.3891 22.9082 28.8488C23.4742 29.7387 24.0306 30.6385 24.6062 31.5284C24.9611 32.0859 25.1434 32.6922 25.1338 33.3671C25.1242 33.9049 25.1338 34.4428 25.1338 34.9905C25.1338 35.9 24.6349 36.614 23.7812 36.8585C23.0041 37.0834 22.2751 36.9954 21.6323 36.4477C21.2294 36.1054 21.0088 35.6555 21.0088 35.1177C21.0088 34.4917 21.0088 33.8658 21.0088 33.2399C21.0088 33.0443 21.0088 33.0443 21.2006 33.0443C21.5556 33.0443 21.9105 33.0443 22.2559 33.0443C22.4381 33.0443 22.4477 33.0443 22.4477 33.2399C22.4765 33.68 22.4669 34.1397 22.4669 34.5993Z"
      fill="black" />
    <path
      d="M63.6209 36.8487C63.2947 36.8487 62.9589 36.8487 62.6328 36.8487C62.5752 36.8487 62.4985 36.8682 62.4793 36.79C62.4601 36.7118 62.4505 36.6335 62.4889 36.5651C62.5177 36.5064 62.5848 36.5259 62.6328 36.5162C62.9302 36.4966 62.9206 36.4966 62.8918 36.2032C62.8246 35.4208 62.7575 34.6482 62.6903 33.8658C62.6616 33.5626 62.6328 33.2595 62.604 32.9563C62.5944 32.8389 62.556 32.8096 62.4505 32.8096C62.1244 32.8096 61.7886 32.8096 61.4624 32.8096C61.3665 32.8096 61.309 32.8292 61.2994 32.9465C61.1938 34.0419 61.0883 35.1372 60.9828 36.2423C60.954 36.5064 60.9636 36.5064 61.2226 36.5162C61.3761 36.5259 61.4528 36.6531 61.3857 36.7998C61.3665 36.8389 61.3281 36.8487 61.2898 36.8487C60.9156 36.8487 60.5415 36.8487 60.1578 36.8487C60.0235 36.8487 60.0523 36.7509 60.0427 36.6629C60.0331 36.5748 60.0523 36.5064 60.1674 36.5162C60.1866 36.5162 60.1962 36.5162 60.2154 36.5162C60.5031 36.5064 60.4936 36.5064 60.5223 36.2032C60.5991 35.3817 60.695 34.5504 60.7717 33.7289C60.8581 32.8878 60.9444 32.0468 61.0212 31.2057C61.1075 30.3842 61.1842 29.5725 61.2706 28.7607C61.3569 27.9099 61.4433 27.0688 61.5296 26.218C61.5967 25.5627 61.6543 24.9075 61.7215 24.262C61.7406 24.0664 61.7502 24.0664 61.9325 24.0664C62.2874 24.0664 62.6424 24.0664 62.9877 24.0664C63.17 24.0664 63.17 24.0664 63.1892 24.262C63.2467 24.839 63.3043 25.416 63.3523 25.993C63.4194 26.7461 63.4962 27.4991 63.5633 28.262C63.6305 29.0052 63.6976 29.7387 63.7743 30.482C63.8415 31.2253 63.9087 31.9587 63.9854 32.702C64.0525 33.4453 64.1197 34.1788 64.1964 34.922C64.2444 35.411 64.2924 35.9 64.3307 36.389C64.3403 36.4868 64.3691 36.5357 64.465 36.5357C64.513 36.5357 64.561 36.5357 64.5993 36.5357C64.772 36.5455 64.8392 36.6433 64.7816 36.8096C64.7528 36.8976 64.6857 36.8682 64.6281 36.8682C64.302 36.8487 63.9566 36.8487 63.6209 36.8487ZM61.9613 25.8268C61.8749 26.707 61.7982 27.548 61.7119 28.3989C61.6255 29.2888 61.5392 30.1886 61.4624 31.0786C61.4241 31.4893 61.3857 31.9001 61.3473 32.3108C61.3377 32.3988 61.3377 32.4869 61.472 32.4771C61.7982 32.4771 62.1339 32.4771 62.4601 32.4771C62.556 32.4771 62.5752 32.4282 62.5656 32.3402C62.556 32.2032 62.5464 32.0565 62.5369 31.9196C62.4505 30.9514 62.3642 29.993 62.2874 29.0248C62.2011 28.0468 62.1244 27.0688 62.038 26.0811C62.0188 26.0224 62.0188 25.9344 61.9613 25.8268Z"
      fill="black" />
    <path
      d="M54.9102 36.8487C54.584 36.8487 54.2482 36.8487 53.9221 36.8487C53.7782 36.8487 53.6918 36.6922 53.759 36.5651C53.7878 36.5162 53.8357 36.5259 53.8837 36.5162C53.9796 36.5064 54.1043 36.5553 54.1715 36.477C54.2386 36.389 54.2003 36.2619 54.2003 36.1543C54.2003 32.3499 54.2003 28.5456 54.2003 24.751C54.2003 24.7119 54.2003 24.6728 54.2003 24.6336C54.2003 24.3989 54.2003 24.3989 53.9796 24.3989C53.9604 24.3989 53.9317 24.3989 53.9125 24.3989C53.759 24.3891 53.759 24.3891 53.759 24.2327C53.759 24.0762 53.7686 24.0664 53.9125 24.0664C54.584 24.0664 55.2651 24.0664 55.9366 24.0664C56.0709 24.0664 56.0901 24.086 56.0901 24.2327C56.0901 24.3794 56.0805 24.3891 55.9366 24.3989C55.6488 24.4185 55.6488 24.4185 55.6488 24.7119C55.6488 28.5456 55.6488 32.3793 55.6488 36.213C55.6488 36.2228 55.6488 36.2325 55.6488 36.2325C55.6488 36.5162 55.6104 36.5162 55.9174 36.5162C56.0901 36.5162 56.0997 36.5357 56.0997 36.702C56.0997 36.8193 56.0517 36.8487 55.9462 36.8487C55.5817 36.8487 55.2459 36.8487 54.9102 36.8487Z"
      fill="black" />
    <path
      d="M6.74377 24.0586C7.06993 24.0586 7.40569 24.0586 7.73185 24.0586C7.88533 24.0586 7.97167 24.2151 7.89493 24.3423C7.86615 24.3912 7.81818 24.3814 7.77022 24.3912C7.67429 24.4009 7.54958 24.352 7.48243 24.4303C7.42487 24.5085 7.46324 24.6259 7.46324 24.7237C7.46324 28.528 7.46324 32.3422 7.46324 36.1465C7.46324 36.1661 7.46324 36.1954 7.46324 36.215C7.46324 36.5084 7.42487 36.4986 7.72225 36.5084C7.89493 36.5084 7.90452 36.528 7.90452 36.6942C7.90452 36.8116 7.85656 36.8409 7.75103 36.8409C7.42487 36.8409 7.1083 36.8409 6.78214 36.8409C6.43679 36.8409 6.09145 36.8409 5.7461 36.8409C5.6022 36.8409 5.51587 36.6747 5.59261 36.5475C5.62139 36.4986 5.66936 36.5084 5.71732 36.4986C6.0243 36.4693 6.0243 36.4693 6.0243 36.1563C6.0243 32.3422 6.0243 28.528 6.0243 24.7041C6.0243 24.6845 6.0243 24.6748 6.0243 24.6552C6.0243 24.3716 6.05307 24.3618 5.75569 24.3618C5.58302 24.3618 5.57343 24.3423 5.57343 24.176C5.57343 24.0684 5.6118 24.0293 5.72691 24.0293C6.07226 24.0684 6.40802 24.0586 6.74377 24.0586Z"
      fill="black" />
    <path
      d="M31.3885 30.4558C31.3885 32.3629 31.3885 34.27 31.3885 36.1771C31.3885 36.2064 31.3885 36.2357 31.3885 36.2749C31.3885 36.5096 31.3885 36.5096 31.6284 36.5194C31.8298 36.5291 31.8394 36.5389 31.8298 36.7247C31.8298 36.8323 31.7722 36.8519 31.6859 36.8519C31.0144 36.8519 30.3333 36.8519 29.6618 36.8519C29.5179 36.8519 29.5083 36.8323 29.5083 36.6856C29.5083 36.5389 29.5179 36.5291 29.6618 36.5194C29.9496 36.4998 29.9496 36.4998 29.9496 36.2064C29.9496 32.3727 29.9496 28.539 29.9496 24.7151C29.9496 24.6955 29.9496 24.6857 29.9496 24.6662C29.9496 24.3923 29.9879 24.3923 29.6906 24.3923C29.5179 24.3923 29.5083 24.3728 29.5083 24.2065C29.5083 24.0989 29.5563 24.05 29.6618 24.0598C29.8824 24.0598 30.1031 24.0598 30.3333 24.0598C30.7746 24.0598 31.2254 24.0598 31.6667 24.0598C31.8106 24.0598 31.897 24.2163 31.8298 24.3434C31.801 24.3923 31.7531 24.3826 31.7051 24.3923C31.6092 24.4021 31.4845 24.3532 31.4173 24.4315C31.3502 24.5195 31.3885 24.6466 31.3885 24.7542C31.3885 26.6613 31.3885 28.5585 31.3885 30.4558Z"
      fill="black" />
    <path
      d="M1.01686 28.8301C1.59244 28.8301 2.04331 29.2702 2.0529 29.857C2.06249 30.4535 1.61162 30.9132 1.02645 30.9132C0.460463 30.9132 0.00959298 30.4535 0 29.8765C0 29.2995 0.441277 28.8399 1.01686 28.8301Z"
      fill="black" />
    <path
      d="M68.964 28.8301C69.5299 28.8301 69.9904 29.2897 70 29.857C70.0096 30.434 69.5395 30.9132 68.964 30.9132C68.398 30.9132 67.9375 30.4438 67.9375 29.8667C67.9375 29.2995 68.398 28.8301 68.964 28.8301Z"
      fill="black" />
    <path
      d="M29.4313 14.2109C29.4313 13.184 29.4313 12.1669 29.4313 11.14C29.4313 11.0715 29.4313 11.0031 29.4313 10.9248C29.4505 10.6999 29.6232 10.5337 29.8342 10.5239C30.0549 10.5141 30.2371 10.6706 30.2659 10.8955C30.2755 10.9737 30.2755 11.052 30.2755 11.1302C30.2755 13.1742 30.2755 15.228 30.2755 17.272C30.2755 17.3404 30.2755 17.4089 30.2659 17.4871C30.2371 17.7218 30.0453 17.8881 29.8246 17.8783C29.604 17.8685 29.4409 17.7023 29.4217 17.4774C29.4122 17.4089 29.4217 17.3404 29.4217 17.2622C29.4313 16.2451 29.4313 15.228 29.4313 14.2109Z"
      fill="black" />
    <path
      d="M40.0216 11.5273C40.0888 12.2804 40.1463 13.0334 40.2135 13.7865C40.2519 14.2364 40.2902 14.6862 40.3286 15.1361C40.3286 15.1948 40.3382 15.2437 40.3478 15.3024C40.3574 15.3708 40.3286 15.4099 40.2615 15.4099C40.0792 15.4099 39.8969 15.4099 39.7051 15.4099C39.6187 15.4099 39.6091 15.3513 39.6187 15.2828C39.6379 15.097 39.6475 14.9112 39.6667 14.7254C39.7626 13.7278 39.8585 12.7303 39.9449 11.7425C39.9545 11.674 39.9641 11.6056 39.9833 11.5371C39.9928 11.5273 40.0024 11.5273 40.0216 11.5273Z"
      fill="black" />
    <path
      d="M39.8873 45.7671C40.2038 45.9236 40.3094 46.1876 40.2998 46.5397C40.2806 46.9798 40.2998 47.4101 40.2998 47.8502C40.2998 47.9871 40.2806 48.1142 40.4341 48.1925C40.4916 48.2218 40.4725 48.2903 40.3957 48.3098C40.0408 48.4076 39.753 48.1827 39.7434 47.8013C39.7434 47.2536 39.7434 46.7059 39.7434 46.1583C39.7434 45.904 39.6283 45.8062 39.3884 45.8062C39.2829 45.8062 39.235 45.8355 39.235 45.9529C39.2445 46.2463 39.235 46.5495 39.235 46.8429C39.235 47.2145 39.235 47.5959 39.235 47.9675C39.235 48.0653 39.2062 48.1827 39.3693 48.1827C39.398 48.1827 39.4172 48.2218 39.4076 48.2512C39.398 48.2903 39.3693 48.3001 39.3405 48.3001C39.0911 48.3001 38.8512 48.3001 38.6018 48.3001C38.573 48.3001 38.5443 48.2805 38.5347 48.2414C38.5347 48.2218 38.5347 48.1827 38.5634 48.1827C38.7265 48.1631 38.6882 48.036 38.6882 47.9382C38.6882 46.8624 38.6882 45.7769 38.6882 44.7011C38.6882 44.3979 38.6882 44.0947 38.6882 43.7818C38.6882 43.684 38.7169 43.5666 38.573 43.5568C38.5634 43.5568 38.5443 43.5177 38.5443 43.4981C38.5443 43.4688 38.573 43.4395 38.6018 43.4395C38.6594 43.4395 38.7073 43.4297 38.7649 43.4297C38.9951 43.4297 39.2254 43.4297 39.4556 43.4297C39.657 43.4297 39.8489 43.4786 40.012 43.6057C40.1943 43.7426 40.2998 43.9285 40.2902 44.1632C40.2902 44.4468 40.2806 44.7304 40.2902 45.0042C40.2998 45.2879 40.1943 45.503 39.9544 45.6497C39.9352 45.6595 39.9161 45.6791 39.8969 45.6888C39.9065 45.7182 39.9065 45.728 39.8873 45.7671ZM39.2445 44.6326C39.2445 44.926 39.2445 45.2292 39.2445 45.5226C39.2445 45.5813 39.235 45.6497 39.3117 45.6693C39.5323 45.7377 39.7434 45.6008 39.7434 45.3563C39.753 44.8771 39.753 44.3881 39.7434 43.9089C39.7434 43.684 39.6379 43.5862 39.4172 43.5764C39.2541 43.5764 39.2445 43.5764 39.2445 43.7622C39.2445 44.0556 39.2445 44.3392 39.2445 44.6326Z"
      fill="black" />
    <path
      d="M35.9163 45.877C35.9163 45.3293 35.9163 44.7816 35.9163 44.234C35.9163 43.8232 36.0986 43.5689 36.4535 43.4614C36.8181 43.344 37.2402 43.4711 37.4416 43.7645C37.5375 43.9015 37.5471 44.0482 37.5471 44.2144C37.5471 44.8208 37.5471 45.4369 37.5471 46.0432C37.5471 46.542 37.5471 47.0408 37.5471 47.5396C37.5471 47.9405 37.3361 48.2144 36.9716 48.3024C36.5782 48.4002 36.1562 48.2339 35.9835 47.921C35.9163 47.8036 35.9067 47.6667 35.9067 47.5298C35.9163 46.9919 35.9163 46.4344 35.9163 45.877ZM37.0003 45.8868C37.0003 45.2511 37.0003 44.6252 37.0003 43.9895C37.0003 43.921 37.0003 43.8526 36.9907 43.7743C36.9716 43.6472 36.8564 43.5494 36.7317 43.5494C36.607 43.5494 36.5015 43.6374 36.4727 43.7743C36.4631 43.8232 36.4631 43.8819 36.4631 43.9406C36.4631 45.2315 36.4631 46.5225 36.4631 47.8036C36.4631 47.8623 36.4631 47.9308 36.4727 47.9894C36.4919 48.1068 36.5974 48.1948 36.7126 48.1948C36.8373 48.2046 36.9524 48.1166 36.9716 47.9797C36.9812 47.9112 36.9812 47.8427 36.9812 47.7645C37.0003 47.1484 37.0003 46.5127 37.0003 45.8868Z"
      fill="black" />
    <path
      d="M43.2066 45.8555C43.2066 45.3078 43.2162 44.7602 43.2066 44.2125C43.197 43.792 43.4848 43.5279 43.7917 43.4497C44.1851 43.3421 44.6071 43.5181 44.7702 43.8311C44.8278 43.9484 44.847 44.0658 44.847 44.1929C44.847 45.3176 44.847 46.4423 44.847 47.567C44.847 47.9777 44.5784 48.2711 44.1755 48.32C43.9452 48.3494 43.7342 48.32 43.5327 48.1929C43.3217 48.0462 43.197 47.8604 43.2066 47.5865C43.2066 47.0095 43.2066 46.4325 43.2066 45.8555ZM43.7534 45.8555C43.7534 46.501 43.7534 47.1367 43.7534 47.7821C43.7534 47.8408 43.7534 47.9093 43.763 47.968C43.7822 48.1146 43.8973 48.2124 44.0316 48.2124C44.1563 48.2124 44.2618 48.1244 44.2906 47.9875C44.3002 47.9288 44.3002 47.8604 44.3002 47.8017C44.3002 46.5303 44.3002 45.2589 44.3002 43.9778C44.3002 43.9191 44.3002 43.8506 44.2906 43.792C44.2618 43.655 44.1659 43.567 44.0316 43.567C43.8973 43.567 43.7822 43.6648 43.763 43.8017C43.7534 43.8604 43.7534 43.9289 43.7534 43.9875C43.7534 44.6037 43.7534 45.2296 43.7534 45.8555Z"
      fill="black" />
    <path
      d="M31.2929 44.6267C31.2929 44.9006 31.2929 45.1744 31.2929 45.4482C31.2929 45.6732 31.2929 45.6732 31.5231 45.6732C31.6095 45.6732 31.6958 45.6732 31.7725 45.6732C31.8301 45.6732 31.9164 45.6438 31.9164 45.7416C31.9068 45.8296 31.8205 45.8003 31.7629 45.8003C31.667 45.8003 31.5615 45.8003 31.4656 45.8003C31.3025 45.8101 31.2929 45.8101 31.2929 45.9666C31.2929 46.6512 31.2929 47.326 31.2929 48.0106C31.2929 48.1377 31.3409 48.1866 31.456 48.167C31.4752 48.167 31.4847 48.167 31.5039 48.167C31.7342 48.167 31.7342 48.167 31.7342 47.9323C31.7342 47.6194 31.7342 47.3064 31.7342 46.9934C31.7342 46.8663 31.7725 46.8272 31.8972 46.8272C32.3865 46.837 32.281 46.7881 32.2906 47.2184C32.3002 47.5216 32.2906 47.8247 32.2906 48.1377C32.2906 48.255 32.2522 48.3039 32.1275 48.3039C31.6574 48.3039 31.1874 48.3039 30.7269 48.3039C30.7077 48.3039 30.6789 48.3039 30.6598 48.3039C30.631 48.3039 30.6022 48.2844 30.5926 48.255C30.583 48.2159 30.6022 48.1866 30.631 48.1866C30.7653 48.1768 30.7365 48.079 30.7365 48.0008C30.7365 46.5925 30.7365 45.1842 30.7365 43.7759C30.7365 43.6879 30.7557 43.5803 30.6118 43.5705C30.6022 43.5705 30.583 43.5314 30.583 43.5118C30.583 43.4727 30.6118 43.4531 30.6406 43.4531C30.6885 43.4531 30.7365 43.4434 30.7749 43.4434C31.2066 43.4434 31.6382 43.4434 32.0603 43.4434C32.2714 43.4434 32.2714 43.4434 32.2714 43.6683C32.2714 44.0301 32.2714 44.392 32.2714 44.7441C32.2714 44.8517 32.2426 44.9006 32.1275 44.9006C31.715 44.9299 31.715 44.9299 31.715 44.5094C31.715 44.2551 31.715 43.991 31.715 43.7368C31.715 43.6194 31.6766 43.5705 31.5615 43.5705C31.2833 43.5607 31.2833 43.5607 31.2833 43.8443C31.2929 44.1182 31.2929 44.3724 31.2929 44.6267Z"
      fill="black" />
    <path
      d="M33.8534 44.2926C33.7767 44.7816 33.9398 45.1923 34.2276 45.5835C34.3906 45.8085 34.5249 46.053 34.6784 46.2877C34.8127 46.4931 34.8703 46.7278 34.8703 46.9723C34.8703 47.1874 34.8703 47.3928 34.8703 47.608C34.8607 47.9796 34.6113 48.2632 34.2563 48.3219C34.0357 48.361 33.8247 48.3415 33.6328 48.2143C33.4313 48.0872 33.3066 47.9111 33.3066 47.6569C33.3066 47.4319 33.3066 47.207 33.3066 46.9723C33.3066 46.8843 33.3354 46.8451 33.4218 46.8354C33.8438 46.7865 33.863 46.806 33.863 47.2266C33.863 47.4613 33.863 47.696 33.863 47.9307C33.863 48.1067 33.9494 48.1948 34.0933 48.1948C34.2276 48.1948 34.3139 48.1165 34.3235 47.9503C34.3331 47.608 34.3427 47.2657 34.3139 46.9234C34.2947 46.7376 34.2276 46.5811 34.1316 46.4246C33.9302 46.1019 33.7287 45.7791 33.5177 45.4564C33.3834 45.2412 33.3066 45.0065 33.3066 44.7523C33.3066 44.5371 33.3066 44.3317 33.3066 44.1166C33.3066 43.8036 33.4697 43.5982 33.7383 43.4809C34.1892 43.2755 34.736 43.5004 34.8511 43.9503C34.9183 44.2339 34.8703 44.5273 34.8799 44.8109C34.8799 44.8598 34.8511 44.8794 34.8127 44.8892C34.7936 44.8892 34.784 44.8892 34.7648 44.899C34.3523 44.9479 34.3331 44.9283 34.3331 44.5078C34.3331 44.2828 34.3331 44.0579 34.3331 43.8232C34.3331 43.7254 34.3139 43.6276 34.2276 43.5787C34.0837 43.4907 33.8726 43.5689 33.8726 43.7645C33.8726 43.784 33.8726 43.7938 33.8726 43.8134C33.8534 43.9796 33.8534 44.1361 33.8534 44.2926Z"
      fill="black" />
    <path
      d="M46.4489 47.4729C46.4489 47.6391 46.4393 47.8054 46.4489 47.9619C46.4489 48.0597 46.4777 48.1477 46.5832 48.1868C46.7367 48.2455 46.8806 48.1672 46.8998 47.9912C46.9189 47.8249 46.8998 47.6587 46.9093 47.5022C46.9573 46.9839 46.8326 46.534 46.516 46.1232C46.353 45.9179 46.2282 45.6734 46.0939 45.4582C45.9884 45.292 45.9213 45.1159 45.9021 44.9105C45.8829 44.6367 45.8829 44.3629 45.9021 44.089C45.9117 43.8837 46.0076 43.7174 46.1707 43.5903C46.4777 43.3458 46.9861 43.3751 47.2739 43.6489C47.389 43.7663 47.4561 43.9032 47.4657 44.0597C47.4753 44.2944 47.4657 44.5291 47.4753 44.7638C47.4753 44.8616 47.4466 44.9105 47.341 44.9105C46.8326 44.9105 46.9381 44.9594 46.9285 44.5193C46.9189 44.2944 46.9285 44.0695 46.9285 43.8348C46.9285 43.737 46.9189 43.6489 46.8326 43.5903C46.6983 43.5022 46.5064 43.5805 46.4777 43.7467C46.4585 43.8934 46.4777 44.0401 46.4585 44.1868C46.4009 44.7247 46.5448 45.2039 46.871 45.6343C47.0245 45.8396 47.1492 46.0646 47.2835 46.2797C47.3602 46.4069 47.4274 46.534 47.4466 46.6905C47.4945 47.0426 47.4753 47.3946 47.4561 47.7467C47.4561 47.7858 47.4466 47.8249 47.4274 47.8641C47.3218 48.1868 46.9765 48.3726 46.5832 48.3335C46.2187 48.3042 45.9405 48.0597 45.9021 47.7174C45.8829 47.4729 45.8925 47.2186 45.8925 46.9643C45.8925 46.8861 45.9309 46.847 46.0076 46.847C46.0172 46.847 46.0268 46.847 46.0268 46.847C46.4393 46.8078 46.4393 46.8078 46.4393 47.2381C46.4393 47.3164 46.4393 47.3946 46.4489 47.4729Z"
      fill="black" />
    <path
      d="M25.7953 45.8735C25.7953 46.519 25.7953 47.1742 25.7953 47.8197C25.7953 48.074 25.8913 48.2011 26.0639 48.2011C26.227 48.2011 26.3229 48.0642 26.3325 47.8295C26.3325 47.5654 26.3325 47.3013 26.3325 47.0275C26.3325 46.8417 26.3325 46.8417 26.5052 46.8417C26.9465 46.8417 26.8697 46.8026 26.8793 47.2035C26.8793 47.3405 26.8793 47.4872 26.8793 47.6241C26.8697 47.8588 26.7642 48.0348 26.5724 48.1718C26.2846 48.3674 25.8625 48.3771 25.5747 48.1815C25.3637 48.0348 25.2485 47.849 25.2485 47.5752C25.2485 46.4309 25.2485 45.2965 25.2485 44.1522C25.2485 43.8784 25.3637 43.6926 25.5747 43.5459C25.8817 43.3405 26.3421 43.3601 26.6299 43.5948C26.7738 43.7121 26.8697 43.8588 26.8793 44.0544C26.8889 44.2892 26.8793 44.5239 26.8889 44.7586C26.8889 44.8564 26.841 44.8955 26.745 44.8955C26.2462 44.8955 26.3517 44.9444 26.3421 44.5141C26.3421 44.3283 26.3421 44.1425 26.3421 43.9469C26.3421 43.8882 26.3421 43.8393 26.3325 43.7806C26.3038 43.6241 26.1982 43.5165 26.0543 43.5263C25.92 43.5361 25.8241 43.6339 25.8049 43.7904C25.7953 43.8491 25.8049 43.898 25.8049 43.9566C25.7953 44.6119 25.7953 45.2378 25.7953 45.8735Z"
      fill="black" />
    <path
      d="M28.51 45.8972C28.51 46.5231 28.51 47.149 28.51 47.7749C28.51 47.8336 28.51 47.902 28.51 47.9607C28.5292 48.1074 28.6347 48.2052 28.769 48.2052C28.8937 48.2052 28.9992 48.1172 29.028 47.9803C29.0376 47.9118 29.0376 47.8434 29.0376 47.7749C29.0376 47.5206 29.0376 47.2566 29.0376 47.0023C29.0376 46.8947 29.076 46.8458 29.1815 46.8458C29.6708 46.8556 29.5748 46.7969 29.5844 47.2272C29.5844 47.3641 29.5844 47.5108 29.5844 47.6478C29.5748 47.8629 29.4789 48.039 29.3062 48.1661C29.0184 48.3812 28.5676 48.391 28.2702 48.1856C28.0687 48.0487 27.9536 47.8531 27.9536 47.5989C27.9536 46.4546 27.9536 45.3006 27.9536 44.1563C27.9536 43.9021 28.0591 43.726 28.251 43.5793C28.5484 43.3642 28.9897 43.3642 29.287 43.5793C29.4693 43.7065 29.5748 43.8825 29.5844 44.1074C29.5844 44.3226 29.5844 44.5475 29.5844 44.7627C29.5844 44.8605 29.5556 44.9094 29.4501 44.9094C28.9321 44.9094 29.0472 44.9583 29.028 44.5182C29.028 44.3226 29.028 44.127 29.028 43.9314C29.028 43.8727 29.028 43.8043 29.0088 43.7456C28.9801 43.6282 28.8745 43.55 28.7498 43.55C28.6347 43.55 28.5196 43.638 28.5004 43.7554C28.4908 43.8238 28.4908 43.8923 28.4908 43.9608C28.51 44.6062 28.51 45.2517 28.51 45.8972Z"
      fill="black" />
    <path
      d="M23.8768 48.3118C23.7616 48.3118 23.6465 48.3118 23.5314 48.3118C23.5026 48.3118 23.4738 48.302 23.4643 48.2726C23.4547 48.2237 23.4738 48.1944 23.5122 48.1944C23.6177 48.1846 23.6081 48.1162 23.5986 48.0379C23.5698 47.6663 23.5314 47.2947 23.5026 46.9132C23.493 46.8154 23.4643 46.7763 23.3683 46.7763C22.9846 46.7861 23.0134 46.7274 22.9846 47.1088C22.9654 47.3925 22.927 47.6859 22.8983 47.9695C22.8887 48.0673 22.8599 48.1748 23.0038 48.2042C23.0518 48.214 23.0422 48.2922 22.9942 48.302C22.8599 48.3313 22.716 48.3215 22.5817 48.3118C22.5625 48.3118 22.5433 48.2824 22.5337 48.2629C22.5241 48.2335 22.5337 48.1944 22.5721 48.1944C22.7064 48.1846 22.7064 48.0966 22.716 47.9988C22.8311 46.8448 22.9558 45.681 23.0709 44.527C23.0997 44.2238 23.1381 43.9206 23.1573 43.6174C23.1669 43.4805 23.2244 43.4512 23.3491 43.4512C23.8 43.461 23.7137 43.3827 23.7616 43.8326C23.8768 44.9671 23.9727 46.1015 24.0782 47.236C24.0974 47.4903 24.1166 47.7543 24.1454 48.0086C24.1549 48.0966 24.1454 48.1846 24.2701 48.1944C24.3084 48.1944 24.318 48.2237 24.318 48.2629C24.318 48.3118 24.2797 48.3215 24.2413 48.3215C24.1262 48.3118 24.0015 48.3118 23.8768 48.3118ZM23.2916 44.3509C23.2148 44.4292 23.2244 44.4878 23.2244 44.5367C23.1669 45.1333 23.1093 45.7299 23.0518 46.3362C23.023 46.6492 23.023 46.659 23.3491 46.6394C23.4643 46.6296 23.493 46.6003 23.4834 46.4829C23.4547 46.17 23.4259 45.857 23.4067 45.5538C23.3587 45.1626 23.33 44.7812 23.2916 44.3509Z"
      fill="black" />
    <path
      d="M41.7678 48.3098C41.6526 48.3098 41.5375 48.3098 41.4224 48.3098C41.384 48.3098 41.3457 48.3 41.3265 48.2609C41.3169 48.212 41.3457 48.1827 41.384 48.1827C41.48 48.1827 41.4896 48.1142 41.4896 48.0457C41.4896 48.0066 41.4896 47.9675 41.4896 47.9284C41.4896 46.569 41.4896 45.2096 41.4896 43.8502C41.4896 43.7328 41.5375 43.5959 41.3457 43.5666C41.3073 43.5666 41.3073 43.5079 41.3457 43.4785C41.3649 43.4688 41.384 43.459 41.4128 43.459C41.6431 43.459 41.8733 43.459 42.1035 43.459C42.1419 43.459 42.1803 43.4688 42.1899 43.5177C42.1994 43.5666 42.1707 43.5959 42.1227 43.5959C42.0364 43.5959 42.0364 43.6644 42.0364 43.723C42.0364 45.1705 42.0364 46.6179 42.0364 48.0653C42.0364 48.1533 42.0556 48.1924 42.1515 48.2022C42.1899 48.2022 42.1994 48.2413 42.1899 48.2707C42.1803 48.3 42.1611 48.3294 42.1227 48.3294C42.0172 48.3098 41.8925 48.3098 41.7678 48.3098Z"
      fill="black" />
  </g>
  <defs>
    <clipPath id="clip0_2348_18">
      <rect width="70" height="60.8698" fill="white" />
    </clipPath>
  </defs>
</svg>