<svg width="125" height="23" viewBox="0 0 125 23" fill="none" xmlns="http://www.w3.org/2000/svg">
  <g clipPath="url(#clip0_1904_14292)">
    <path
      d="M67.3141 11.5164C67.3141 14.5866 67.3141 17.6567 67.3141 20.7095C67.3141 20.8482 67.3141 20.987 67.3141 21.1258C67.3484 21.8369 67.8795 22.392 68.5648 22.4093C69.233 22.4267 69.7983 21.9063 69.8669 21.2125C69.884 21.1084 69.8669 21.0217 69.8669 20.9176C69.8669 17.8128 69.8669 14.708 69.8669 11.5858C69.8669 11.5164 69.8669 11.447 69.8669 11.3777C69.884 11.2042 69.7983 11.1348 69.627 11.1348C69.37 11.1348 69.113 11.1348 68.8389 11.1348C68.599 11.1348 68.5819 11.1001 68.5648 10.8226C68.5648 10.6145 68.6504 10.5624 68.8389 10.5624C69.9525 10.5624 71.0661 10.5624 72.1626 10.5624C72.334 10.5624 72.4196 10.6318 72.4025 10.8053C72.4025 10.9093 72.4025 11.0308 72.4025 11.1348C72.4025 13.8754 72.4025 16.5986 72.4025 19.3392C72.4025 21.039 71.5459 22.2532 69.9354 22.7562C68.4962 23.2072 67.1428 23.0164 65.9435 22.0624C65.1211 21.4206 64.7271 20.5707 64.7442 19.4953C64.7613 15.2457 64.7442 10.9961 64.7442 6.76379C64.7442 5.74041 64.7442 4.71703 64.7442 3.67631C64.7442 1.85504 65.6865 0.588824 67.434 0.155189C68.8903 -0.209064 70.2438 0.0337716 71.3917 1.0745C72.077 1.69893 72.4196 2.46213 72.4025 3.39878C72.3854 4.45685 72.4025 5.51492 72.4025 6.55564C72.4025 6.93724 72.4025 6.93724 72.0598 6.93724C71.4431 6.93724 70.8263 6.93724 70.2095 6.93724C69.8669 6.93724 69.8669 6.93724 69.8669 6.59033C69.8669 5.22005 69.8669 3.84976 69.8669 2.46213C69.8669 2.21929 69.884 1.9938 69.8497 1.75097C69.7983 1.16122 69.3357 0.658206 68.7875 0.588824C68.1879 0.502097 67.6396 0.796969 67.3998 1.31733C67.297 1.54282 67.297 1.76831 67.297 2.01115C67.297 3.24267 67.297 4.47419 67.297 5.72306C67.3141 7.66575 67.3141 9.59109 67.3141 11.5164Z"
      fill="black" />
    <path
      d="M23.215 5.56848C23.1122 5.75928 23.1465 5.89804 23.1465 6.03681C23.1465 11.2751 23.1465 16.5308 23.1465 21.7691C23.1465 21.8211 23.1465 21.8732 23.1465 21.9425C23.1636 22.2548 23.1636 22.2548 23.472 22.2721C23.5234 22.2721 23.5748 22.2721 23.6433 22.2721C23.9346 22.2894 23.9346 22.2894 23.9346 22.5843C23.9346 22.7751 23.8832 22.8618 23.6776 22.8618C23.0437 22.8445 22.4098 22.8445 21.793 22.8618C21.5703 22.8618 21.5703 22.7404 21.5531 22.567C21.5531 22.3935 21.5703 22.2721 21.793 22.2721C21.9643 22.2721 22.187 22.3588 22.307 22.2201C22.444 22.0813 22.3584 21.8558 22.3584 21.665C22.3584 14.9177 22.3584 8.15294 22.3584 1.40558C22.3584 1.30151 22.3584 1.21478 22.3584 1.11071C22.3584 0.798495 22.3412 0.798495 22.0328 0.78115C21.9814 0.78115 21.93 0.78115 21.8615 0.78115C21.5703 0.763804 21.4675 0.59035 21.5531 0.312824C21.5703 0.243442 21.6045 0.226097 21.6731 0.208752C21.7759 0.191406 21.8615 0.191406 21.9643 0.191406C22.7695 0.191406 23.5748 0.191406 24.3972 0.191406C24.7912 0.191406 24.7912 0.191406 24.8769 0.573005C25.3566 2.72383 25.8192 4.87466 26.2989 7.02549C26.8985 9.76607 27.5153 12.524 28.1149 15.2646C28.1321 15.3686 28.1492 15.4727 28.2691 15.6115C28.2691 15.438 28.2691 15.2992 28.2691 15.1778C28.2691 10.5466 28.2691 5.91539 28.2691 1.28417C28.2691 1.24948 28.2691 1.19744 28.2691 1.16275C28.2691 0.798495 28.2691 0.798495 27.9094 0.78115C27.8751 0.78115 27.8237 0.78115 27.7894 0.78115C27.4982 0.763804 27.3954 0.607696 27.481 0.330169C27.5153 0.226097 27.5838 0.208752 27.6695 0.208752C28.3205 0.208752 28.9887 0.208752 29.6398 0.208752C29.8453 0.208752 29.8453 0.330169 29.8453 0.486278C29.8453 0.642387 29.8453 0.78115 29.6226 0.78115C29.4513 0.78115 29.2286 0.694423 29.1086 0.850531C28.9887 1.00664 29.0572 1.23213 29.0572 1.42293C29.0572 8.37843 29.0572 15.3513 29.0572 22.3068C29.0572 22.9659 29.0915 22.8618 28.509 22.8618C28.1321 22.8618 27.7723 22.8618 27.3954 22.8618C27.0185 22.8618 27.0185 22.8618 26.9328 22.4976C26.4188 20.156 25.9048 17.8143 25.3908 15.4727C24.6884 12.3158 24.0031 9.14163 23.3178 5.96742C23.3007 5.84601 23.2664 5.74193 23.215 5.56848Z"
      fill="black" />
    <path
      d="M81.9283 5.60161C81.8255 5.74037 81.8597 5.87914 81.8597 6.0179C81.8597 11.2562 81.8597 16.5119 81.8597 21.7502C81.8597 21.8022 81.8597 21.8542 81.8597 21.9236C81.8769 22.2358 81.8769 22.2358 82.1853 22.2532C82.2367 22.2532 82.2881 22.2532 82.3566 22.2532C82.6479 22.2705 82.6479 22.2705 82.6479 22.5654C82.6479 22.7562 82.5965 22.8429 82.3909 22.8429C81.757 22.8256 81.123 22.8256 80.5063 22.8429C80.2835 22.8429 80.2835 22.7215 80.2664 22.5481C80.2664 22.3746 80.2835 22.2532 80.5063 22.2532C80.6776 22.2532 80.9003 22.3399 81.0202 22.2012C81.1573 22.0624 81.0716 21.8369 81.0716 21.6461C81.0716 14.8641 81.0716 8.082 81.0716 1.2826C81.0716 0.710206 81.123 0.744897 80.5748 0.744897C80.3007 0.744897 80.1807 0.554098 80.2835 0.276571C80.3178 0.189844 80.3692 0.172499 80.4377 0.172499C80.5405 0.172499 80.6262 0.172499 80.729 0.172499C81.5171 0.172499 82.3223 0.172499 83.1104 0.172499C83.4874 0.172499 83.5045 0.172499 83.5901 0.571443C84.1213 2.98245 84.6524 5.39346 85.1835 7.78713C85.7317 10.2675 86.28 12.7653 86.8282 15.2457C86.8454 15.3497 86.8968 15.4364 86.9482 15.5926C87.0167 15.4018 86.9996 15.263 86.9996 15.1242C86.9996 10.5104 86.9996 5.87914 86.9996 1.26526C86.9996 0.710206 87.051 0.727552 86.5027 0.727552C86.2286 0.727552 86.1087 0.536752 86.2115 0.259226C86.2629 0.137808 86.3656 0.155153 86.4513 0.155153C86.8968 0.155153 87.3251 0.155153 87.7705 0.155153C87.9761 0.155153 88.1817 0.155153 88.3873 0.155153C88.61 0.155153 88.5758 0.293917 88.5758 0.43268C88.5758 0.571443 88.5929 0.727552 88.3873 0.710206C88.353 0.710206 88.3016 0.710206 88.2674 0.710206C87.7877 0.710206 87.7877 0.65817 87.7877 1.23057C87.7877 8.20342 87.7877 15.1936 87.7877 22.1665C87.7877 22.9123 87.8391 22.7909 87.188 22.7909C86.8282 22.7909 86.4684 22.7909 86.1258 22.7909C85.7831 22.7909 85.766 22.7909 85.6975 22.444C85.2863 20.6227 84.8922 18.7841 84.4811 16.9628C83.6758 13.303 82.8706 9.62574 82.0653 5.96586C82.0139 5.87914 82.0139 5.74037 81.9283 5.60161Z"
      fill="black" />
    <path
      d="M42.3519 4.16344C42.3519 3.46962 42.3519 2.77581 42.3519 2.08199C42.3519 1.96057 42.3519 1.83916 42.3519 1.70039C42.3005 0.746395 41.7009 0.451523 40.8957 0.624977C40.553 0.694359 40.3132 0.937195 40.2104 1.2841C40.1418 1.49225 40.1247 1.71774 40.1247 1.94323C40.1247 3.20944 40.1247 4.47566 40.1247 5.72452C40.1247 6.78259 40.3988 7.73659 40.9813 8.63855C41.9922 10.217 42.9858 11.8128 44.0138 13.3912C44.6306 14.3452 44.939 15.3859 44.9218 16.5307C44.9047 17.5367 44.8876 18.5254 44.9218 19.5315C44.9904 21.4048 43.517 22.6536 42.1121 22.9138C41.2726 23.0699 40.4502 23.0179 39.645 22.671C38.3429 22.1159 37.5891 20.9885 37.5891 19.5662C37.5891 18.5254 37.5891 17.4847 37.5891 16.444C37.5891 16.045 37.5891 16.045 38.0002 16.045C38.5828 16.045 39.1824 16.045 39.7649 16.045C40.1247 16.045 40.1247 16.045 40.1247 16.4093C40.1247 17.9357 40.1247 19.4621 40.1247 20.9885C40.1247 21.214 40.1247 21.4395 40.1932 21.6476C40.3303 22.168 40.7072 22.4281 41.2726 22.4281C41.8208 22.4281 42.1635 22.168 42.3177 21.6649C42.3691 21.4915 42.3691 21.3007 42.3691 21.1272C42.3691 19.7743 42.3691 18.404 42.3691 17.0511C42.3691 16.0277 42.0778 15.091 41.5296 14.2238C40.5187 12.6453 39.5422 11.0669 38.5314 9.50582C37.8803 8.51713 37.5719 7.44172 37.5891 6.24489C37.6062 5.34293 37.5891 4.44096 37.5891 3.539C37.5891 1.87385 38.5142 0.607632 40.1076 0.191342C41.4096 -0.13822 42.6432 0.000542957 43.7226 0.867813C44.5107 1.50959 44.9218 2.32483 44.9218 3.3482C44.9218 4.42362 44.9218 5.48169 44.9218 6.5571C44.9218 6.95605 44.9218 6.95605 44.5107 6.95605C43.911 6.95605 43.3114 6.95605 42.6946 6.95605C42.3862 6.95605 42.3691 6.9387 42.3691 6.62649C42.3519 5.79391 42.3519 4.97867 42.3519 4.16344Z"
      fill="black" />
    <path
      d="M113.607 22.8272C113.024 22.8272 112.425 22.8272 111.842 22.8272C111.585 22.8272 111.585 22.8098 111.585 22.5323C111.585 22.3588 111.619 22.2548 111.825 22.2548C112.356 22.2374 112.373 22.2201 112.322 21.6997C112.168 19.9652 112.013 18.2133 111.859 16.4787C111.859 16.4267 111.842 16.3747 111.842 16.3053C111.791 15.6635 111.791 15.6635 111.14 15.6635C110.694 15.6635 110.232 15.6635 109.786 15.6635C109.495 15.6635 109.495 15.6808 109.461 15.9584C109.375 16.8603 109.289 17.7796 109.204 18.6989C109.101 19.7223 108.998 20.7457 108.895 21.7691C108.895 21.8385 108.878 21.9078 108.878 21.9772C108.861 22.2374 108.878 22.2548 109.152 22.2548C109.221 22.2548 109.289 22.2548 109.358 22.2548C109.649 22.2721 109.666 22.3068 109.666 22.6017C109.666 22.7578 109.615 22.8272 109.443 22.8272C108.792 22.8272 108.124 22.8272 107.473 22.8272C107.233 22.8272 107.268 22.671 107.25 22.5149C107.25 22.3588 107.268 22.2374 107.473 22.2548C107.507 22.2548 107.525 22.2548 107.559 22.2548C108.141 22.2548 108.056 22.3415 108.124 21.717C108.347 19.705 108.535 17.6929 108.741 15.6808C108.947 13.6688 109.152 11.6567 109.358 9.64465C109.529 7.91011 109.7 6.17557 109.889 4.42368C110.026 3.10543 110.163 1.76984 110.3 0.451587C110.317 0.260788 110.386 0.191406 110.574 0.191406C111.26 0.191406 111.945 0.208752 112.63 0.191406C112.853 0.191406 112.904 0.312824 112.921 0.503623C113.007 1.45762 113.093 2.41162 113.178 3.36561C113.333 4.96139 113.487 6.57451 113.641 8.17029C113.761 9.45385 113.881 10.7374 114.001 12.021C114.155 13.6514 114.309 15.2819 114.463 16.9124C114.583 18.2133 114.703 19.5142 114.823 20.7977C114.857 21.214 114.909 21.6303 114.943 22.0466C114.96 22.2201 115.029 22.3068 115.2 22.2894C115.286 22.2894 115.371 22.2894 115.44 22.2894C115.731 22.3068 115.748 22.3241 115.748 22.6364C115.748 22.8272 115.663 22.8792 115.491 22.8618C114.84 22.8272 114.223 22.8272 113.607 22.8272ZM110.728 3.19216C110.643 3.36561 110.626 3.50438 110.608 3.64314C110.574 4.00739 110.54 4.38899 110.506 4.75325C110.352 6.31433 110.214 7.87542 110.06 9.4365C109.889 11.2231 109.718 13.027 109.529 14.8136C109.495 15.0738 109.512 15.0911 109.786 15.0911C110.317 15.0911 110.848 15.0911 111.397 15.0911C111.756 15.0911 111.756 15.0911 111.722 14.7095C111.636 13.7035 111.551 12.6974 111.465 11.6914C111.311 9.88748 111.157 8.10091 111.003 6.29699C110.917 5.29095 110.831 4.26757 110.728 3.19216Z"
      fill="black" />
    <path
      d="M53.5055 11.518C53.5055 8.1356 53.5055 4.75325 53.5055 1.37089C53.5055 1.28417 53.5055 1.19744 53.5055 1.12806C53.5055 0.78115 53.5055 0.78115 53.1286 0.763804C53.0772 0.763804 53.0258 0.763804 52.9572 0.763804C52.7002 0.746459 52.7002 0.729114 52.6831 0.468933C52.6831 0.278133 52.7345 0.191406 52.9401 0.191406C54.1565 0.191406 55.3729 0.191406 56.6065 0.191406C56.8292 0.191406 56.8463 0.312824 56.8463 0.486278C56.8463 0.659732 56.8121 0.78115 56.5894 0.78115C56.418 0.78115 56.1953 0.694423 56.0925 0.850531C55.9897 0.989295 56.0411 1.19744 56.0411 1.37089C56.0411 8.1356 56.0411 14.9177 56.0411 21.6824C56.0411 21.717 56.0411 21.7691 56.0411 21.8038C56.0411 22.3241 56.024 22.2721 56.5037 22.2721C56.8292 22.2721 56.8806 22.3588 56.8292 22.671C56.8121 22.7925 56.7778 22.8445 56.6579 22.8445C56.6236 22.8445 56.6065 22.8445 56.5722 22.8445C55.3729 22.8445 54.1565 22.8445 52.9572 22.8445C52.7002 22.8445 52.6831 22.8272 52.6831 22.5496C52.6831 22.2894 52.6831 22.2894 52.9572 22.2721C53.4712 22.2548 53.4712 22.2548 53.4712 21.7344C53.5055 18.3173 53.5055 14.9177 53.5055 11.518Z"
      fill="black" />
    <path
      d="M12.0269 22.8272C11.4444 22.8272 10.8448 22.8272 10.2623 22.8272C10.0053 22.8272 9.98813 22.7925 9.98813 22.5323C9.98813 22.2721 10.0053 22.2548 10.2623 22.2548C10.7762 22.2374 10.7762 22.2374 10.7762 21.6997C10.7762 14.883 10.7762 8.08356 10.7762 1.26682C10.7762 0.763804 10.7762 0.763804 10.2794 0.746459C10.0053 0.729114 9.88534 0.520969 9.98813 0.278133C10.0053 0.226097 10.0567 0.191406 10.1081 0.191406C10.1595 0.191406 10.2109 0.191406 10.2794 0.191406C11.4615 0.191406 12.6437 0.191406 13.8087 0.191406C14.1 0.191406 14.1 0.208752 14.1171 0.486278C14.1171 0.677077 14.0657 0.746459 13.8601 0.763804C13.3119 0.78115 13.3119 0.798495 13.3119 1.35355C13.3119 8.1356 13.3119 14.9177 13.3119 21.6997C13.3119 21.7344 13.3119 21.7517 13.3119 21.7864C13.3119 22.3068 13.2947 22.2548 13.7745 22.2548C14.1171 22.2548 14.1171 22.2721 14.1171 22.6017C14.1171 22.7925 14.0314 22.8272 13.8601 22.8272C13.2605 22.8272 12.6437 22.8272 12.0269 22.8272Z"
      fill="black" />
    <path
      d="M99.3354 11.5526C99.3354 14.9003 99.3354 18.2306 99.3354 21.5783C99.3354 21.6824 99.3354 21.7691 99.3354 21.8732C99.3354 22.2374 99.3354 22.2374 99.6952 22.2548C99.7466 22.2548 99.798 22.2548 99.8665 22.2548C100.141 22.2721 100.141 22.2721 100.141 22.5323C100.141 22.8098 100.141 22.8272 99.8322 22.8272C98.8043 22.8272 97.7763 22.8272 96.7483 22.8272C96.577 22.8272 96.4228 22.8098 96.2515 22.8272C96.0459 22.8445 95.9945 22.7231 95.9945 22.5496C95.9945 22.3935 95.9945 22.2548 96.2172 22.2548C96.3885 22.2548 96.6113 22.3415 96.7312 22.2027C96.8511 22.064 96.7826 21.8385 96.7826 21.6477C96.7826 14.8656 96.7826 8.08356 96.7826 1.30151C96.7826 0.798495 96.7826 0.798495 96.3029 0.763804C96.0459 0.746459 95.9088 0.520969 96.0288 0.278133C96.063 0.226097 96.0973 0.191406 96.1487 0.191406C96.2172 0.191406 96.2858 0.191406 96.3543 0.191406C97.5022 0.191406 98.6501 0.191406 99.8151 0.191406C100.141 0.191406 100.141 0.208752 100.158 0.503623C100.158 0.711768 100.072 0.763804 99.8836 0.763804C99.3525 0.78115 99.3525 0.798495 99.3525 1.3362C99.3354 4.7359 99.3354 8.15295 99.3354 11.5526Z"
      fill="black" />
    <path
      d="M1.8332 8.60352C2.82689 8.60352 3.66639 9.45344 3.66639 10.4595C3.66639 11.4655 2.82689 12.3154 1.8332 12.3154C0.822368 12.3154 0 11.4655 0 10.4595C0 9.45344 0.839501 8.60352 1.8332 8.60352Z"
      fill="black" />
    <path
      d="M125 10.4944C124.983 11.5178 124.143 12.333 123.15 12.3157C122.139 12.281 121.351 11.4658 121.368 10.4251C121.385 9.40168 122.225 8.58644 123.218 8.60379C124.229 8.63848 125.017 9.47106 125 10.4944Z"
      fill="black" />
  </g>
  <defs>
    <clipPath id="clip0_1904_14292">
      <rect width="125" height="23" fill="white" />
    </clipPath>
  </defs>
</svg>