<svg width="68" height="40" viewBox="0 0 68 40" fill="none" xmlns="http://www.w3.org/2000/svg">
  <g clip-path="url(#clip0_2352_5425)">
    <path
      d="M30.0344 0.0435817C35.7382 0.0435817 41.442 0.086825 47.1458 0.000338485C48.9283 -0.0429048 49.5521 0.519257 49.2848 2.24899C49.0174 3.93547 48.349 6.05439 49.062 7.30845C49.9086 8.82196 52.2703 7.78412 53.9637 7.95709C61.7618 8.90845 66.619 14.3139 66.3962 21.9679C66.3516 23.8274 66.0842 25.6868 65.9506 27.5463C65.8614 29.103 65.3713 30.5733 67.2874 31.8274C68.7579 32.7787 67.6884 35.3733 65.7723 35.849C65.2821 35.9787 64.7474 35.9787 64.2127 35.9355C62.2966 35.849 60.8706 36.1517 59.4001 37.7517C56.5036 40.9949 51.6019 40.5193 49.1065 37.0166C48.4827 36.1517 47.9034 35.9355 46.923 35.9355C40.6845 35.9787 34.446 35.9787 28.2074 35.9355C27.138 35.9355 26.425 36.2382 25.8011 37.0598C22.9047 40.9084 16.6216 40.8652 14.6163 36.7571C14.2153 35.9355 13.5469 35.8922 12.7893 35.9355C11.0069 35.9355 9.22447 35.9787 7.44203 35.8922C6.28345 35.849 5.48135 35.2868 5.16942 34.2057C4.8575 33.2111 4.99118 32.0436 5.8824 31.6976C8.42237 30.7463 7.84308 28.6706 8.11044 26.8544C8.51149 23.8274 8.7343 24.0868 5.57047 23.9571C4.45645 23.9139 2.40664 24.6922 2.40664 23.1355C2.40664 21.276 4.50101 22.1841 5.65959 22.1409C8.68974 22.0111 11.7644 22.0976 14.7946 22.0976C15.463 22.0976 16.2651 22.1409 16.3542 22.9625C16.4433 24.0003 15.5076 23.9571 14.7946 24.0003C10.0711 24.4328 10.1157 24.4328 9.89288 28.8868C9.80376 30.3139 10.1602 30.7895 11.6753 30.7463C13.4578 30.7463 14.75 30.5301 16.0869 29.0166C19.0279 25.6868 23.9296 26.076 26.5587 29.7084C27.0934 30.4868 27.6727 30.703 28.5639 30.703C33.4656 30.6598 38.3673 30.6598 43.269 30.703C44.4722 30.703 44.9623 30.3571 45.0515 29.1463C45.7644 20.7571 46.4774 12.3679 47.3241 3.97872C47.5023 2.11926 46.9676 1.68682 45.096 1.68682C34.8025 1.90304 24.6426 1.8598 14.4381 1.8598C12.4329 1.8598 11.5862 2.94088 12.0318 4.84358C12.2101 5.6652 12.7893 5.57872 13.3686 5.57872C14.6163 5.62196 15.9086 5.57872 17.1563 5.62196C17.691 5.62196 18.2258 5.75169 18.2703 6.40034C18.3149 7.13547 17.8247 7.39493 17.1563 7.39493C12.1209 7.39493 7.04098 7.39493 2.00559 7.39493C1.33718 7.39493 0.802449 7.09223 0.891571 6.35709C0.936132 5.57872 1.64911 5.62196 2.2284 5.62196C4.23364 5.57872 6.23888 5.53547 8.24413 5.62196C9.71464 5.70845 10.1602 5.14628 10.2494 3.7625C10.4722 0.00033858 10.5167 0.000338485 14.4381 0.000338485C19.6072 0.0435817 24.8208 0.0435817 30.0344 0.0435817ZM52.0921 9.90304C48.6609 9.8598 48.6163 9.8598 48.3044 13.103C47.7697 18.422 47.3241 23.7409 46.8785 29.0166C46.8339 29.622 46.3437 30.5733 47.5023 30.7895C48.3044 30.9625 48.9728 30.7463 49.5967 30.0112C53.3398 25.7301 57.5731 25.7733 61.0043 30.1409C61.5836 30.9193 62.252 30.7895 62.9204 30.7895C63.7671 30.7895 63.7225 30.0976 63.8116 29.5355C64.0344 27.4598 64.2127 25.3841 64.4355 23.3084C65.3267 15.3517 60.3359 9.94628 52.0921 9.90304ZM25.4001 32.9949C25.4001 30.5733 23.5285 28.7571 21.0331 28.8003C18.2703 28.8436 15.7749 31.2652 15.7749 33.903C15.7749 36.2814 17.7356 38.0976 20.1419 38.0976C22.9492 38.0976 25.4001 35.676 25.4001 32.9949ZM59.7566 32.9517C59.7566 30.5733 57.8405 28.7139 55.3896 28.7571C52.6268 28.8003 50.176 31.222 50.2205 33.903C50.2205 36.2814 52.1367 38.0976 54.5875 38.0544C57.3503 38.0976 59.7566 35.676 59.7566 32.9517ZM37.6989 34.1625C37.6989 34.2057 37.6989 34.2057 37.6989 34.1625C40.6845 34.1625 43.6255 34.2057 46.6111 34.1625C47.1904 34.1625 48.1262 34.422 48.1262 33.4274C48.1262 32.5625 47.3241 32.7355 46.7893 32.7355C40.7736 32.7355 34.7579 32.7355 28.7422 32.7355C28.1629 32.7355 27.4053 32.6922 27.4499 33.5139C27.4945 34.3787 28.252 34.1625 28.8313 34.1625C31.7723 34.2057 34.7133 34.1625 37.6989 34.1625ZM10.5167 34.1625C11.3188 34.1625 12.1655 34.1625 12.9676 34.1625C13.5023 34.1625 13.8142 33.9463 13.8142 33.4274C13.8142 32.9949 13.5469 32.7787 13.1458 32.7787C11.4525 32.7787 9.7592 32.7787 8.06588 32.822C7.62027 32.822 7.17466 32.9949 7.17466 33.5571C7.17466 34.1625 7.66483 34.1625 8.11044 34.2057C8.91254 34.2057 9.71464 34.1625 10.5167 34.1625ZM63.6779 34.2057C64.4355 34.0328 65.8169 34.5517 65.7277 33.2976C65.6832 32.3463 64.3909 32.7355 63.6334 32.6922C62.9204 32.649 61.7173 32.303 61.7618 33.5571C61.8955 34.5517 63.0095 34.0328 63.6779 34.2057Z"
      fill="#2CB708" />
    <path
      d="M16.6212 18.5941C14.1704 18.5941 11.7195 18.6374 9.26868 18.5941C8.5557 18.5941 7.61992 18.5509 7.70904 17.5563C7.79817 16.7779 8.5557 16.6914 9.26868 16.6914C14.2149 16.6914 19.2058 16.6914 24.152 16.6914C24.865 16.6914 25.8008 16.7347 25.7117 17.7292C25.6671 18.5509 24.8204 18.5941 24.152 18.5941C21.6566 18.5941 19.1166 18.5941 16.6212 18.5941Z"
      fill="#2CB708" />
    <path
      d="M21.1669 13.0158C18.9388 13.0158 16.7108 13.0158 14.4827 13.0158C13.7698 13.0158 12.834 13.059 12.834 12.0212C12.834 11.0699 13.6806 11.1563 14.3045 11.1563C18.8052 11.1563 23.3504 11.1563 27.851 11.1563C28.4749 11.1563 29.3661 11.1131 29.3661 12.0212C29.4107 13.0158 28.5194 13.059 27.7619 13.059C25.5784 13.0158 23.3949 13.0158 21.1669 13.0158Z"
      fill="#2CB708" />
    <path
      d="M23.3054 22.1836C24.5086 22.1836 25.6672 22.1836 26.8703 22.1836C27.4942 22.1836 28.0734 22.3998 28.0734 23.1349C28.0734 23.7836 27.5833 23.9998 27.0485 24.0431C24.464 24.0431 21.8795 24.0431 19.2949 23.9998C18.7156 23.9998 18.27 23.6971 18.3146 23.0917C18.3592 22.4863 18.7602 22.1836 19.3395 22.1836C20.6318 22.1836 21.9686 22.2268 23.3054 22.1836Z"
      fill="#2CB708" />
    <path
      d="M7.17423 11.1559C7.97633 11.1559 8.77843 11.1127 9.58052 11.1559C10.2044 11.1992 10.8282 11.3289 10.7837 12.1073C10.7391 12.8424 10.1598 13.0154 9.53596 13.0154C7.97633 13.0154 6.46126 13.0586 4.90162 13.0154C4.27777 13.0154 3.65392 12.8857 3.60936 12.1505C3.52024 11.1992 4.32233 11.2424 4.99075 11.1559C5.70372 11.1127 6.4167 11.1559 7.17423 11.1559Z"
      fill="#2CB708" />
    <path
      d="M2.80734 18.6812C1.73788 18.3352 0 19.1568 0 17.6433C0 16.1298 1.69332 16.692 2.67366 16.692C3.74312 16.7352 5.61468 16.0866 5.61468 17.6001C5.65924 19.2433 3.69856 18.2055 2.80734 18.6812Z"
      fill="#2CB708" />
    <path
      d="M23.6626 7.60999C22.504 7.00459 20.4542 8.30188 20.4988 6.48567C20.5433 4.84242 22.5486 5.70729 23.618 5.66405C24.6429 5.6208 26.559 4.88567 26.559 6.44242C26.6036 8.38837 24.5092 6.87486 23.6626 7.60999Z"
      fill="#2CB708" />
    <path
      d="M55.7902 23.4371C54.1415 23.4371 52.5373 23.3939 50.8885 23.4371C49.7745 23.4371 49.2398 22.9614 49.3289 21.8804C49.5517 18.9398 49.7745 15.9993 50.0419 13.0587C50.131 12.1506 50.5766 11.7182 51.6015 11.6317C57.4836 11.1128 62.6081 15.4804 62.8309 21.1885C62.8754 22.7452 62.3407 23.4804 60.6919 23.4371C59.0432 23.3506 57.439 23.4371 55.7902 23.4371C55.7902 23.3939 55.7902 23.3939 55.7902 23.4371ZM55.9239 21.4912C57.0379 21.4912 58.152 21.4047 59.2214 21.4912C60.7811 21.6209 60.9147 20.929 60.6474 19.675C60.0235 17.1236 58.5085 15.2642 56.1022 14.1831C52.7601 12.6263 51.9134 13.1452 51.6906 16.6912C51.6906 16.8209 51.6906 16.9939 51.6461 17.1236C51.3341 21.6209 51.3341 21.6209 55.9239 21.4912Z"
      fill="#2CB708" />
    <path
      d="M20.186 36.1515C18.8492 36.0218 17.8688 35.2434 17.8243 33.6001C17.7797 32.0434 19.2056 30.7461 20.8098 30.7461C22.5477 30.7893 23.3944 31.7407 23.4835 33.2974C23.5726 34.8542 22.1021 36.1515 20.186 36.1515Z"
      fill="#2CB708" />
    <path
      d="M57.8396 33.3831C57.795 34.8966 56.4136 36.1939 54.8094 36.1506C53.1161 36.1074 52.2249 35.2425 52.1358 33.6425C52.0912 31.956 53.5617 30.702 55.255 30.7452C56.7701 30.7885 57.8841 31.956 57.8396 33.3831Z"
      fill="#2CB708" />
  </g>
  <defs>
    <clipPath id="clip0_2352_5425">
      <rect width="68" height="40" fill="white" />
    </clipPath>
  </defs>
</svg>